# xmcd
#
# Track frame offsets:
# 150
# 33266
# 47949
# 66254
# 75115
# 88846
# 120420
# 136240
# 168163
#
# Disc length: 2429 seconds
#
#
# Revision: 0
# Processed by: cddbd v1.5.1PL0 Copyright (c) Steve Scherf et al.
# Submitted via: FreeRIP 2.942 
#
DISCID=68097b09
DTITLE=Rolando Boldrin - Rolandro Boldrin
DYEAR=1900
DGENRE=Folk
TTITLE0=Abertura
TTITLE1=Moda do Fim do Mundo
TTITLE2=Modo do Jogo
TTITLE3=Vide-Vida Marvada
TTITLE4=Faca de Ponta
TTITLE5=Amor de Violeiro
TTITLE6=Vida do Homem
TTITLE7=Eu, a Viola e Deus
TTITLE8=Tema para Juliana
EXTD=
EXTT0=
EXTT1=
EXTT2=
EXTT3=
EXTT4=
EXTT5=
EXTT6=
EXTT7=
EXTT8=
PLAYORDER=
